<svg xmlns="http://www.w3.org/2000/svg" viewBox="30 60 730 205" width="730" height="205" role="img" aria-label="Grievly.ai">
  <path d="M143.20 138.40L121.28 138.40Q116.96 130.08 109.28 125.84Q101.60 121.60 91.52 121.60L91.52 121.60Q80.48 121.60 71.84 126.56Q63.20 131.52 58.32 140.64Q53.44 149.76 53.44 161.76L53.44 161.76Q53.44 173.76 58.32 182.96Q63.20 192.16 71.84 197.12Q80.48 202.08 91.52 202.08L91.52 202.08Q106.40 202.08 115.68 193.76Q124.96 185.44 127.04 171.20L127.04 171.20L85.28 171.20L85.28 156.64L146.56 156.64L146.56 170.88Q144.80 183.84 137.36 194.72Q129.92 205.60 118 212.08Q106.08 218.56 91.52 218.56L91.52 218.56Q75.84 218.56 62.88 211.28Q49.92 204 42.32 191.04Q34.72 178.08 34.72 161.76L34.72 161.76Q34.72 145.44 42.32 132.48Q49.92 119.52 62.96 112.24Q76 104.96 91.52 104.96L91.52 104.96Q109.28 104.96 123.12 113.68Q136.96 122.40 143.20 138.40L143.20 138.40ZM182.72 142.24Q186.72 135.52 193.36 131.76Q200.00 128.00 209.12 128.00L209.12 128.00L209.12 146.88L204.48 146.88Q193.76 146.88 188.24 152.32Q182.72 157.76 182.72 171.20L182.72 171.20L182.72 217.60L164.48 217.60L164.48 129.44L182.72 129.44L182.72 142.24ZM225.92 129.44L244.16 129.44L244.16 217.60L225.92 217.60L225.92 129.44ZM348.96 171.36Q348.96 176.32 348.32 180.32L348.32 180.32L280.96 180.32Q281.76 190.88 288.80 197.28Q295.84 203.68 306.08 203.68L306.08 203.68Q320.80 203.68 326.88 191.36L326.88 191.36L346.56 191.36Q342.56 203.52 332.08 211.28Q321.60 219.04 306.08 219.04L306.08 219.04Q293.44 219.04 283.44 213.36Q273.44 207.68 267.76 197.36Q262.08 187.04 262.08 173.44L262.08 173.44Q262.08 159.84 267.60 149.52Q273.12 139.20 283.12 133.60Q293.12 128.00 306.08 128.00L306.08 128.00Q318.56 128.00 328.32 133.44Q338.08 138.88 343.52 148.72Q348.96 158.56 348.96 171.36L348.96 171.36ZM281.12 165.60L329.92 165.60Q329.76 155.52 322.72 149.44Q315.68 143.36 305.28 143.36L305.28 143.36Q295.84 143.36 289.12 149.36Q282.40 155.36 281.12 165.60L281.12 165.60ZM376 129.44L400.96 201.28L425.92 129.44L445.28 129.44L411.68 217.60L389.92 217.60L356.48 129.44L376 129.44ZM459.04 99.20L477.28 99.20L477.28 217.60L459.04 217.60L459.04 99.20ZM561.76 129.44L580.64 129.44L526.56 259.04L507.68 259.04L525.60 216.16L490.88 129.44L511.20 129.44L536 196.64L561.76 129.44Z" fill="#F7F3EA"></path>
  <g transform="translate(-8.50 0)"><path d="M600.48 218.72Q595.52 218.72 592.16 215.36Q588.80 212 588.80 207.04L588.80 207.04Q588.80 202.08 592.16 198.72Q595.52 195.36 600.48 195.36L600.48 195.36Q605.28 195.36 608.64 198.72Q612 202.08 612 207.04L612 207.04Q612 212 608.64 215.36Q605.28 218.72 600.48 218.72L600.48 218.72Z" fill="#54B487"></path></g>
  <path d="M620.32 173.12Q620.32 159.84 625.84 149.60Q631.36 139.36 640.88 133.68Q650.40 128.00 661.92 128.00L661.92 128.00Q672.32 128.00 680.08 132.08Q687.84 136.16 692.48 142.24L692.48 142.24L692.48 129.44L710.88 129.44L710.88 217.60L692.48 217.60L692.48 204.48Q687.84 210.72 679.84 214.88Q671.84 219.04 661.60 219.04L661.60 219.04Q650.24 219.04 640.80 213.20Q631.36 207.36 625.84 196.88Q620.32 186.40 620.32 173.12L620.32 173.12ZM692.48 173.44Q692.48 164.32 688.72 157.60Q684.96 150.88 678.88 147.36Q672.80 143.84 665.76 143.84L665.76 143.84Q658.72 143.84 652.64 147.28Q646.56 150.72 642.80 157.36Q639.04 164 639.04 173.12L639.04 173.12Q639.04 182.24 642.80 189.12Q646.56 196 652.72 199.60Q658.88 203.20 665.76 203.20L665.76 203.20Q672.80 203.20 678.88 199.68Q684.96 196.16 688.72 189.36Q692.48 182.56 692.48 173.44L692.48 173.44ZM744.16 117.76Q739.20 117.76 735.84 114.40Q732.48 111.04 732.48 106.08L732.48 106.08Q732.48 101.12 735.84 97.76Q739.20 94.40 744.16 94.40L744.16 94.40Q748.96 94.40 752.32 97.76Q755.68 101.12 755.68 106.08L755.68 106.08Q755.68 111.04 752.32 114.40Q748.96 117.76 744.16 117.76L744.16 117.76ZM734.88 129.44L753.12 129.44L753.12 217.60L734.88 217.60L734.88 129.44Z" fill="#D8D2C5"></path>
  <g transform="translate(249.62 93.38) rotate(222) scale(65)"><path d="M0,-0.52 C-0.30,-0.30 -0.44,0.06 0,0.52 Z" fill="#54B487"></path><path d="M0,-0.52 C0.30,-0.30 0.44,0.06 0,0.52 Z" fill="#2F805A"></path></g>
</svg>
