<svg xmlns="http://www.w3.org/2000/svg" viewBox="-40.0 -1510.0 13887.2 1690.0" role="img" aria-label="CareResolve">
<g transform="translate(0.00 -1380.00) scale(15.2000)" fill="none" stroke-width="22.0" stroke-linecap="round">
<path d="M64 14C31.3 14 15 30 15 50s16.3 36 49 36" stroke="#2F805A"/>
<path d="M96 14c32.7 0 49 16 49 36s-16.3 36-49 36" stroke="#54B487"/>
</g>
<g transform="translate(2992.00 0)">
<path d="M602.0008544921875 30.0Q436.33404541015625 30.0 320.00048828125 -44.00006103515625Q203.66693115234375 -118.0001220703125 142.33343505859375 -246.83346557617188Q80.99993896484375 -375.66680908203125 80.0 -540Q80.99993896484375 -706.9998168945312 144.16680908203125 -835.66650390625Q207.33367919921875 -964.3331909179688 324.33392333984375 -1037.1665954589844Q441.33416748046875 -1110.0 604.6676025390625 -1110.0Q782.0017700195312 -1110.0 907.5020141601562 -1021.8328247070312Q1033.0022583007812 -933.6656494140625 1073.3353271484375 -780.664794921875L865.3314208984375 -721.3306884765625Q834.3318481445312 -811.9969482421875 763.4992065429688 -862.330078125Q692.6665649414062 -912.6632080078125 602.0008544921875 -912.6632080078125Q499.335205078125 -912.6632080078125 433.0025634765625 -864.4969482421875Q366.669921875 -816.3306884765625 334.6702880859375 -732.164794921875Q302.670654296875 -647.9989013671875 302.0040283203125 -540.0Q303.00396728515625 -372.66827392578125 378.3365173339844 -270.0025329589844Q453.6690673828125 -167.3367919921875 602.0008544921875 -167.3367919921875Q703.0003051757812 -167.3367919921875 765.6660766601562 -213.66986083984375Q828.3318481445312 -260.0029296875 860.6646728515625 -347.335693359375L1073.3353271484375 -296.6685791015625Q1020.3357543945312 -138.667724609375 898.3353881835938 -54.3338623046875Q776.3350219726562 30.0 602.0008544921875 30.0Z M1541.6663818359375 30.0Q1422.333251953125 30.0 1340.9999694824219 -14.333343505859375Q1259.6666870117188 -58.66668701171875 1218.3333435058594 -132.33340454101562Q1177.0 -206.0001220703125 1177.0 -294.000244140625Q1177.0 -375.66650390625 1206.1662902832031 -437.8331604003906Q1235.3325805664062 -499.99981689453125 1291.9989318847656 -543.6667175292969Q1348.665283203125 -587.3336181640625 1432.3321533203125 -614.0006103515625Q1503.664794921875 -635.0006713867188 1594.8309631347656 -651.1673889160156Q1685.9971313476562 -667.3341064453125 1786.3307495117188 -681.0008850097656Q1886.6643676757812 -694.6676635742188 1985.666015625 -709.3345947265625L1910.331298828125 -666.667236328125Q1911.9978637695312 -794.3319702148438 1856.4984436035156 -855.4976501464844Q1800.9990234375 -916.663330078125 1666.333984375 -916.663330078125Q1581.002197265625 -916.663330078125 1510.1692199707031 -877.1639709472656Q1439.3362426757812 -837.6646118164062 1411.0030517578125 -746.6656494140625L1216.333251953125 -806.666748046875Q1255.6666870117188 -945.999755859375 1368.1667175292969 -1027.9998779296875Q1480.666748046875 -1110.0 1667.667236328125 -1110.0Q1813.0004272460938 -1110.0 1920.333984375 -1060.3336791992188Q2027.6675415039062 -1010.6673583984375 2077.66796875 -904.0006103515625Q2103.6683349609375 -850.6668701171875 2109.6683349609375 -791.6668090820312Q2115.6683349609375 -732.666748046875 2115.6683349609375 -665.3330078125V0.0H1930.9984130859375V-246.6651611328125L1966.998291015625 -215.3309326171875Q1899.99755859375 -91.33184814453125 1796.3316345214844 -30.665924072265625Q1692.6657104492188 30.0 1541.6663818359375 30.0ZM1579.0009765625 -140.6693115234375Q1668.0001220703125 -140.6693115234375 1732.166015625 -172.33566284179688Q1796.3319091796875 -204.00201416015625 1835.1647338867188 -253.16775512695312Q1873.99755859375 -302.33349609375 1886.330810546875 -354.6650390625Q1902.9977416992188 -402.664794921875 1905.3311462402344 -462.9980163574219Q1907.66455078125 -523.3312377929688 1907.66455078125 -558.664794921875L1975.665283203125 -533.9984130859375Q1877.33056640625 -518.9981079101562 1796.1642761230469 -507.1646728515625Q1714.9979858398438 -495.33123779296875 1649.6658325195312 -483.4979553222656Q1584.3336791992188 -471.6646728515625 1533.0013427734375 -455.9981689453125Q1490.0015258789062 -441.3314208984375 1456.3354187011719 -420.3315734863281Q1422.6693115234375 -399.33172607421875 1403.1697998046875 -368.9989013671875Q1383.6702880859375 -338.66607666015625 1383.6702880859375 -296.0003662109375Q1383.6702880859375 -254.00067138671875 1404.6701354980469 -218.66787719726562Q1425.6699829101562 -183.3350830078125 1468.8360900878906 -162.002197265625Q1512.002197265625 -140.6693115234375 1579.0009765625 -140.6693115234375Z M2336.0 0V-1080H2522.0032958984375V-817.9998779296875L2496.0032958984375 -851.9998779296875Q2515.6700439453125 -904.0001220703125 2547.6702270507812 -947.3336181640625Q2579.67041015625 -990.6671142578125 2622.0042724609375 -1018.667236328125Q2662.6708374023438 -1049.0001831054688 2713.503875732422 -1065.5Q2764.3369140625 -1081.9998168945312 2817.336669921875 -1085.4998168945312Q2870.33642578125 -1088.9998168945312 2918.6697998046875 -1080.0V-883.9964599609375Q2866.3369140625 -898.3297729492188 2801.6705627441406 -892.1632080078125Q2737.0042114257812 -885.9966430664062 2683.337890625 -850.6640625Q2632.3380737304688 -818.3313598632812 2602.5045471191406 -770.9986877441406Q2572.6710205078125 -723.666015625 2559.6707763671875 -666.16650390625Q2546.6705322265625 -608.6669921875 2546.6705322265625 -545.333740234375V0.0Z M3548.334716796875 30.0Q3386.6677856445312 30.0 3265.5007934570312 -40.666717529296875Q3144.3338012695312 -111.33343505859375 3076.6669006347656 -237.66671752929688Q3009.0 -364 3009.0 -530.6663818359375Q3009.0 -707.6663818359375 3075.500213623047 -837.6664428710938Q3142.0004272460938 -967.66650390625 3260.834014892578 -1038.833251953125Q3379.6676025390625 -1110.0 3537.667724609375 -1110.0Q3702.6680297851562 -1110.0 3818.668212890625 -1033.3331298828125Q3934.6683959960938 -956.666259765625 3992.1683654785156 -815.666015625Q4049.6683349609375 -674.665771484375 4038.3346557617188 -481.332275390625H3828.9976806640625V-557.333740234375Q3826.997802734375 -744.9990234375 3757.4988403320312 -834.831298828125Q3687.9998779296875 -924.66357421875 3545.66796875 -924.66357421875Q3389.0023803710938 -924.66357421875 3310.003204345703 -825.8311157226562Q3231.0040283203125 -726.9986572265625 3231.0040283203125 -540.0Q3231.0040283203125 -362.3349609375 3310.003204345703 -264.83587646484375Q3389.0023803710938 -167.3367919921875 3537.667724609375 -167.3367919921875Q3635.6666259765625 -167.3367919921875 3707.3323974609375 -211.6695556640625Q3778.9981689453125 -256.0023193359375 3818.99755859375 -339.3345947265625L4023.6683349609375 -274.00048828125Q3961.0017700195312 -129.3336181640625 3833.0015563964844 -49.66680908203125Q3705.0013427734375 30.0 3548.334716796875 30.0ZM3163.0030517578125 -481.332275390625V-644.0013427734375H3933.6663818359375V-481.332275390625Z" fill="#FAF8F3"/>
<path d="M4222.0 0V-1080H4408.0032958984375V-817.9998779296875L4382.0032958984375 -851.9998779296875Q4401.6700439453125 -904.0001220703125 4433.670227050781 -947.3336181640625Q4465.67041015625 -990.6671142578125 4508.0042724609375 -1018.667236328125Q4548.670837402344 -1049.0001831054688 4599.503875732422 -1065.5Q4650.3369140625 -1081.9998168945312 4703.336669921875 -1085.4998168945312Q4756.33642578125 -1088.9998168945312 4804.6697998046875 -1080.0V-883.9964599609375Q4752.3369140625 -898.3297729492188 4687.670562744141 -892.1632080078125Q4623.004211425781 -885.9966430664062 4569.337890625 -850.6640625Q4518.338073730469 -818.3313598632812 4488.504547119141 -770.9986877441406Q4458.6710205078125 -723.666015625 4445.6707763671875 -666.16650390625Q4432.6705322265625 -608.6669921875 4432.6705322265625 -545.333740234375V0.0Z M5434.334716796875 30.0Q5272.667785644531 30.0 5151.500793457031 -40.666717529296875Q5030.333801269531 -111.33343505859375 4962.666900634766 -237.66671752929688Q4895.0 -364 4895.0 -530.6663818359375Q4895.0 -707.6663818359375 4961.500213623047 -837.6664428710938Q5028.000427246094 -967.66650390625 5146.834014892578 -1038.833251953125Q5265.6676025390625 -1110.0 5423.667724609375 -1110.0Q5588.668029785156 -1110.0 5704.668212890625 -1033.3331298828125Q5820.668395996094 -956.666259765625 5878.168365478516 -815.666015625Q5935.6683349609375 -674.665771484375 5924.334655761719 -481.332275390625H5714.9976806640625V-557.333740234375Q5712.997802734375 -744.9990234375 5643.498840332031 -834.831298828125Q5573.9998779296875 -924.66357421875 5431.66796875 -924.66357421875Q5275.002380371094 -924.66357421875 5196.003204345703 -825.8311157226562Q5117.0040283203125 -726.9986572265625 5117.0040283203125 -540.0Q5117.0040283203125 -362.3349609375 5196.003204345703 -264.83587646484375Q5275.002380371094 -167.3367919921875 5423.667724609375 -167.3367919921875Q5521.6666259765625 -167.3367919921875 5593.3323974609375 -211.6695556640625Q5664.9981689453125 -256.0023193359375 5704.99755859375 -339.3345947265625L5909.6683349609375 -274.00048828125Q5847.001770019531 -129.3336181640625 5719.001556396484 -49.66680908203125Q5591.0013427734375 30.0 5434.334716796875 30.0ZM5049.0030517578125 -481.332275390625V-644.0013427734375H5819.6663818359375V-481.332275390625Z M6520.667236328125 29.3333740234375Q6323.666809082031 29.3333740234375 6199.666717529297 -57.8336181640625Q6075.6666259765625 -145.0006103515625 6048.0 -302.66796875L6262.00390625 -336.0018310546875Q6282.3370361328125 -252.0023193359375 6354.502868652344 -203.33599853515625Q6426.668701171875 -154.669677734375 6534.6676025390625 -154.669677734375Q6632.999450683594 -154.669677734375 6688.498504638672 -194.66897583007812Q6743.99755859375 -234.66827392578125 6743.99755859375 -304.6671142578125Q6743.99755859375 -345.66656494140625 6724.6644287109375 -371.16619873046875Q6705.331298828125 -396.66583251953125 6643.1650390625 -419.66558837890625Q6580.998779296875 -442.66534423828125 6453.9993896484375 -476.6651611328125Q6314.66650390625 -513.3316650390625 6233.499969482422 -554.4983825683594Q6152.333435058594 -595.6651000976562 6117.500091552734 -651.165283203125Q6082.666748046875 -706.6654663085938 6082.666748046875 -785.9990234375Q6082.666748046875 -883.9993896484375 6135.0001220703125 -956.9996032714844Q6187.33349609375 -1029.9998168945312 6281.666961669922 -1069.9999084472656Q6376.000427246094 -1110.0 6502.6673583984375 -1110.0Q6627.0008544921875 -1110.0 6724.167572021484 -1070.8333435058594Q6821.334289550781 -1031.6666870117188 6881.167663574219 -960.1666564941406Q6941.001037597656 -888.6666259765625 6953.33447265625 -792.66650390625L6739.33056640625 -753.9991455078125Q6728.330810546875 -831.6647338867188 6666.165191650391 -876.8307800292969Q6603.999572753906 -921.996826171875 6504.6676025390625 -925.9969482421875Q6409.6688232421875 -929.9970092773438 6350.8363037109375 -894.3309936523438Q6292.0037841796875 -858.6649780273438 6292.0037841796875 -796.6658935546875Q6292.0037841796875 -760.9996948242188 6314.670257568359 -736.1667175292969Q6337.336730957031 -711.333740234375 6402.336517333984 -688.0006103515625Q6467.3363037109375 -664.66748046875 6594.0029296875 -632.66748046875Q6730.002136230469 -597.6676635742188 6809.835144042969 -555.3343200683594Q6889.668151855469 -513.0009765625 6924.501434326172 -454.6675720214844Q6959.334716796875 -396.33416748046875 6959.334716796875 -312.66748046875Q6959.334716796875 -153.00042724609375 6842.6678466796875 -61.833526611328125Q6726.0009765625 29.3333740234375 6520.667236328125 29.3333740234375Z M7608.667724609375 30.0Q7446.667663574219 30.0 7328.000732421875 -43.0Q7209.333801269531 -116.0 7144.666900634766 -244.66665649414062Q7080.0 -373.33331298828125 7080.0 -540.6666259765625Q7080.0 -709.9999389648438 7146.000244140625 -838.3332824707031Q7212.00048828125 -966.6666259765625 7330.834075927734 -1038.3333129882812Q7449.667663574219 -1110.0 7608.667724609375 -1110.0Q7771.0010986328125 -1110.0 7890.001373291016 -1037.1666564941406Q8009.001647949219 -964.3333129882812 8073.835235595703 -835.9999694824219Q8138.6688232421875 -707.6666259765625 8138.6688232421875 -540.6666259765625Q8138.6688232421875 -371.66668701171875 8073.335235595703 -243.16668701171875Q8008.001647949219 -114.66668701171875 7888.834716796875 -42.333343505859375Q7769.667785644531 30.0 7608.667724609375 30.0ZM7608.667724609375 -167.3367919921875Q7763.999572753906 -167.3367919921875 7840.332183837891 -271.50250244140625Q7916.664794921875 -375.668212890625 7916.664794921875 -540.6666259765625Q7916.664794921875 -710.3317260742188 7839.498840332031 -811.4974670410156Q7762.3328857421875 -912.6632080078125 7608.667724609375 -912.6632080078125Q7503.668701171875 -912.6632080078125 7435.836029052734 -865.330322265625Q7368.003356933594 -817.9974365234375 7335.003692626953 -734.33154296875Q7302.0040283203125 -650.6656494140625 7302.0040283203125 -540.6666259765625Q7302.0040283203125 -370.66815185546875 7379.836608886719 -269.0024719238281Q7457.669189453125 -167.3367919921875 7608.667724609375 -167.3367919921875Z M8339.0 0V-1470H8548.337158203125V0.0Z M9100.0 0 8708.0 -1080H8918.67041015625L9206.001831054688 -262.0042724609375L9492.666625976562 -1080.0H9704.003662109375L9312.003662109375 0.0Z M10323.334716796875 30.0Q10161.667785644531 30.0 10040.500793457031 -40.666717529296875Q9919.333801269531 -111.33343505859375 9851.666900634766 -237.66671752929688Q9784.0 -364 9784.0 -530.6663818359375Q9784.0 -707.6663818359375 9850.500213623047 -837.6664428710938Q9917.000427246094 -967.66650390625 10035.834014892578 -1038.833251953125Q10154.667602539062 -1110.0 10312.667724609375 -1110.0Q10477.668029785156 -1110.0 10593.668212890625 -1033.3331298828125Q10709.668395996094 -956.666259765625 10767.168365478516 -815.666015625Q10824.668334960938 -674.665771484375 10813.334655761719 -481.332275390625H10603.997680664062V-557.333740234375Q10601.997802734375 -744.9990234375 10532.498840332031 -834.831298828125Q10462.999877929688 -924.66357421875 10320.66796875 -924.66357421875Q10164.002380371094 -924.66357421875 10085.003204345703 -825.8311157226562Q10006.004028320312 -726.9986572265625 10006.004028320312 -540.0Q10006.004028320312 -362.3349609375 10085.003204345703 -264.83587646484375Q10164.002380371094 -167.3367919921875 10312.667724609375 -167.3367919921875Q10410.666625976562 -167.3367919921875 10482.332397460938 -211.6695556640625Q10553.998168945312 -256.0023193359375 10593.99755859375 -339.3345947265625L10798.668334960938 -274.00048828125Q10736.001770019531 -129.3336181640625 10608.001556396484 -49.66680908203125Q10480.001342773438 30.0 10323.334716796875 30.0ZM9938.003051757812 -481.332275390625V-644.0013427734375H10708.666381835938V-481.332275390625Z" fill="#54B487"/>
</g>
</svg>
